#N canvas 803 90 483 607 10;
#X obj 1 0 cnv 15 475 600 empty empty empty 20 12 0 14 -259828 -66577
0;
#X obj 44 17 inlet;
#X obj 44 48 tgl 15 0 empty empty empty 17 7 0 10 -262144 -1 -1 0 1
;
#X obj 240 22 inlet;
#X obj 236 70 unpack f f f, f 27;
#X floatatom 316 107 5 0 0 0 - - -, f 5;
#X floatatom 395 101 5 0 0 0 - - -, f 5;
#X obj 44 68 sel 1 0, f 9;
#X obj 2 101 bng 15 250 50 0 empty empty empty 17 7 0 10 -262144 -1
-1;
#X obj 26 185 t b b, f 9;
#X obj 25 276 f;
#X msg 25 298 1 \$1;
#X floatatom 237 113 5 0 0 0 - - -, f 5;
#X obj 237 132 t f f;
#X text 193 111 ATTACK;
#X obj 170 287 del;
#X obj 108 152 t f b, f 9;
#X msg 159 176 stop;
#X text 17 143 IF 1 SEND ATTACK, f 11;
#X text 72 128 IF 0 SEND STOP;
#X obj 173 549 line~;
#X obj 170 321 t b b, f 7;
#X obj 0 348 print attack;
#X obj 316 126 dbtorms;
#X floatatom 316 148 5 0 0 0 - - -, f 5;
#X obj 169 382 f;
#X obj 209 350 f;
#X text 195 287 DELAY DURATION=ATTACK TIME;
#X msg 301 27 2000 93 1000;
#X obj 170 482 pack f f;
#X obj 368 465 pack f f;
#X obj 172 577 outlet~;
#X text 349 106 SUSTAIN;
#X text 427 100 RELEASE;
#X text 193 382 SUSTAIN STARTS ONCE DELAY FINISHES;
#X obj 116 414 print sustain;
#X obj 307 401 print release;
#X connect 1 0 2 0;
#X connect 2 0 7 0;
#X connect 3 0 4 0;
#X connect 4 0 12 0;
#X connect 4 1 5 0;
#X connect 4 2 6 0;
#X connect 5 0 23 0;
#X connect 6 0 26 1;
#X connect 6 0 30 1;
#X connect 7 0 8 0;
#X connect 7 0 9 0;
#X connect 7 1 16 0;
#X connect 9 0 10 0;
#X connect 9 1 15 0;
#X connect 10 0 11 0;
#X connect 11 0 20 0;
#X connect 11 0 22 0;
#X connect 12 0 13 0;
#X connect 13 0 10 1;
#X connect 13 1 15 1;
#X connect 15 0 21 0;
#X connect 16 0 30 0;
#X connect 16 1 17 0;
#X connect 17 0 15 0;
#X connect 20 0 31 0;
#X connect 21 0 25 0;
#X connect 21 1 26 0;
#X connect 23 0 24 0;
#X connect 24 0 25 1;
#X connect 25 0 29 0;
#X connect 25 0 35 0;
#X connect 26 0 29 1;
#X connect 26 0 36 0;
#X connect 28 0 4 0;
#X connect 29 0 20 0;
#X connect 30 0 20 0;
