#N canvas 2556 24 407 257 10;
#N canvas 271 23 896 855 midi 1;
#X obj 90 7 notein;
#X floatatom 91 148 5 0 0 0 - - -, f 5;
#X floatatom 140 145 5 0 0 0 - - -, f 5;
#X obj 97 179 pack f f;
#X obj 97 201 poly 1 1;
#X floatatom 29 232 5 0 0 0 - - -, f 5;
#X floatatom 115 230 5 0 0 0 - - -, f 5;
#X floatatom 199 230 5 0 0 0 - - -, f 5;
#X text 404 12 1) This is a monophonic synthesizer \, so you will need
the usual notein object with poly 1 1;
#X text 404 47 Modify your patch so when velocity is not 0 \, you always
get 1 \, and when velocity is 0 \, you get 0;
#X obj 560 98 s midi-modulation;
#X text 404 81 Use your modulation wheel \, if you have it \, to send
out a modulation message like:;
#X text 416 161 Use your pitch-bend wheel \, if you have it \, to send
out a bend message like:;
#X obj 561 182 s bend;
#X text 429 125 it should come in through ctlin. adjust range to 0
to 1;
#X text 430 209 itshould come in through the bendin object. adjust
range to -1 to 1, f 45;
#X obj 93 298 s note_data;
#X floatatom 137 31 5 0 0 0 - - -, f 5;
#X obj 137 51 sel 0;
#X text 182 55 if 0 \, left outlet;
#X text 177 69 if not 0 \, right outlet, f 24;
#X obj 166 94 t b;
#X msg 166 116 1;
#X msg 138 103 0;
#X text 195 107 use message boxes to output 0 or 1, f 17;
#X text 179 146 VELOCITY;
#X text 53 144 NOTE;
#X obj 12 333 cnv 15 180 225 empty empty empty 20 12 0 14 -191407 -66577
0;
#X obj 64 352 ctlin;
#X floatatom 16 387 5 0 0 0 - - -, f 5;
#X floatatom 72 387 5 0 0 0 - - -, f 5;
#X floatatom 123 385 5 0 0 0 - - -, f 5;
#X obj 16 406 / 127;
#X floatatom 16 428 5 0 0 0 - - -, f 5;
#X text 22 526 MODULATION WHEEL;
#X text 54 407 <---adjusts range from 0-1 instead of 0-127, f 22;
#X text 25 333 MODULATION WHEEL CONTROL;
#X obj 197 330 cnv 15 150 230 empty empty empty 20 12 0 14 -262127
-66577 0;
#X floatatom 223 380 5 0 0 0 - - -, f 5;
#X obj 223 352 bendin;
#X obj 223 493 s bend;
#X obj 223 402 - 8192;
#X floatatom 223 424 5 0 0 0 - - -, f 5;
#X obj 223 443 / 8192;
#X floatatom 223 465 5 0 0 0 - - -, f 5;
#X text 216 518 PITCH BEND WHEEL, f 11;
#X text 200 336 PITCH BEND CONTROL;
#X obj 17 498 s midi_mod;
#X obj 93 276 pack f f;
#X connect 0 0 1 0;
#X connect 0 1 17 0;
#X connect 1 0 3 0;
#X connect 2 0 3 1;
#X connect 3 0 4 0;
#X connect 4 0 5 0;
#X connect 4 1 6 0;
#X connect 4 2 7 0;
#X connect 6 0 48 0;
#X connect 7 0 48 1;
#X connect 17 0 18 0;
#X connect 18 0 23 0;
#X connect 18 1 21 0;
#X connect 21 0 22 0;
#X connect 22 0 2 0;
#X connect 23 0 2 0;
#X connect 28 0 29 0;
#X connect 28 1 30 0;
#X connect 28 2 31 0;
#X connect 29 0 32 0;
#X connect 32 0 33 0;
#X connect 33 0 47 0;
#X connect 38 0 41 0;
#X connect 39 0 38 0;
#X connect 41 0 42 0;
#X connect 42 0 43 0;
#X connect 43 0 44 0;
#X connect 44 0 40 0;
#X connect 48 0 16 0;
#X restore 11 10 pd midi;
#X obj 10 108 tab-waveforms, f 14;
#X obj 10 179 dac~;
#X obj 10 135 filter+amp;
#X obj 132 8 cnv 15 225 225 empty empty empty 20 12 0 14 -212212 -66577
0;
#X obj 143 95 cnv 15 110 25 empty empty empty 20 12 0 14 -259828 -66577
0;
#X obj 146 180 *~, f 20;
#X obj 146 202 s~ mod_sig;
#X obj 233 11 cnv 15 100 20 empty empty empty 20 12 0 14 -228856 -66577
0;
#X obj 138 37 cnv 15 80 20 empty empty empty 20 12 0 14 -162280 -66577
0;
#N canvas 1039 46 338 325 waveform_select 0;
#X obj 64 43 inlet;
#X msg 169 204 set square;
#X msg 41 142 set pulse;
#X msg 102 175 set sawtooth;
#X msg 231 232 set triangle;
#X obj 64 85 sel 0 1 2 3;
#X obj 104 292 outlet;
#X text 18 5 THIS WILL SELECT THE TYPE OF WAVEFORM MODULATION;
#X floatatom 123 42 5 0 0 0 - waveform_mod -, f 5;
#X connect 0 0 5 0;
#X connect 1 0 6 0;
#X connect 2 0 6 0;
#X connect 3 0 6 0;
#X connect 4 0 6 0;
#X connect 5 0 2 0;
#X connect 5 1 3 0;
#X connect 5 2 1 0;
#X connect 5 3 4 0;
#X connect 8 0 5 0;
#X restore 238 58 pd waveform_select;
#X obj 145 38 r freq_mod;
#X obj 238 13 r waveform_mod;
#X floatatom 145 60 5 0 0 0 - - -, f 5;
#X floatatom 238 36 5 0 0 0 - - -, f 5;
#X obj 258 150 cnv 15 80 20 empty empty empty 20 12 0 14 -191407 -66577
0;
#X obj 263 151 r width_mod;
#N canvas 2365 26 167 308 wavetable_osc 1;
#X obj 9 82 phasor~;
#X obj 9 104 *~ 2045;
#X obj 9 126 +~ 1;
#X obj 11 259 outlet~;
#X obj 9 25 inlet~;
#X obj 77 133 inlet;
#X obj 18 201 tabread4~ square;
#X connect 0 0 1 0;
#X connect 1 0 2 0;
#X connect 2 0 6 0;
#X connect 4 0 0 0;
#X connect 5 0 6 0;
#X connect 6 0 3 0;
#X restore 148 99 pd wavetable_osc;
#X obj 11 35 myosc 1;
#X obj 11 59 myosc 2;
#X obj 11 83 myosc 3;
#X obj 71 184 env~;
#X floatatom 71 209 5 0 0 0 - - -, f 5;
#X connect 3 0 21 0;
#X connect 3 0 2 0;
#X connect 3 0 2 1;
#X connect 6 0 7 0;
#X connect 10 0 17 1;
#X connect 11 0 13 0;
#X connect 12 0 14 0;
#X connect 13 0 17 0;
#X connect 14 0 10 0;
#X connect 16 0 6 1;
#X connect 17 0 6 0;
#X connect 21 0 22 0;
